<?xml version="1.0"?>
<svg xmlns="http://www.w3.org/2000/svg" xmlns:xlink="http://www.w3.org/1999/xlink" data-noselect="" viewBox="0 0 800 600" width="1600" height="1200" preserveAspectRatio="none" version="1.1" class="svg-canvas"><defs/> <g id="background" data-noselect=""><rect fill="#090e1c" width="800" height="600" data-noselect=""/> <!----></g> <g id="shape_lTvgtjCGsN" transform="translate(148.09663391113008,177.52789076832997) rotate(0,106.8433583437,122.47210923167) scale(1,1)" filter="" style="opacity: 1;"><g><svg xmlns="http://www.w3.org/2000/svg" xmlns:xlink="http://www.w3.org/1999/xlink" version="1.1" id="&#x56FE;&#x5C42;_1" x="0px" y="0px" width="213.6867166874" height="244.94421846334" viewBox="-21.132205963134766 54.980712890625 159.4991912841797 182.83029174804688" style="enable-background:new -41 42.46 200 200;" xml:space="preserve" preserveAspectRatio="none" class="style-removed" data-parent="shape_lTvgtjCGsN">
<g id="ckaiMe.tif_2__s55z4lE7NA_c">
	<g>
		<path d="M137.728,109.146c-9.327-29.374-44.171-59.136-88.664-53.465C28.83,58.259,11.89,67.7-2.023,82.624    c-6.99,7.499-15.701,21.54-16.632,26.87c-0.074,0.415,0.06,0.409,0.268,0.034c4.439-8.182,11.784-17.382,18.018-23.448    c0.047,0.181,0.087,0.368,0.1,0.549c0.268-0.288,0.529-0.576,0.79-0.857c0.75-0.797,1.453-1.634,2.243-2.377    c6.1-6.2,13.083-11.389,20.549-15.373c3.729-1.995,7.613-3.609,11.53-4.995c3.937-1.326,7.934-2.343,11.938-3.073    c1.004-0.167,2.009-0.295,3.013-0.442l1.5-0.214l1.507-0.127c1.004-0.08,2.002-0.161,3-0.248c0.997-0.027,1.995-0.047,2.986-0.074    c0.516-0.013,0.964-0.034,1.52-0.034l1.466,0.04c0.971,0.033,1.935,0.047,2.913,0.087c0.984,0.087,1.962,0.167,2.946,0.255    c0.489,0.04,0.978,0.074,1.46,0.134l1.446,0.201c0.958,0.141,1.915,0.268,2.866,0.422c0.944,0.187,1.882,0.375,2.819,0.562    c0.468,0.1,0.937,0.187,1.399,0.295l1.379,0.355c0.917,0.241,1.835,0.482,2.745,0.723c0.897,0.288,1.788,0.569,2.678,0.857    l1.332,0.429l1.299,0.495c0.864,0.328,1.727,0.656,2.584,0.984c0.844,0.375,1.681,0.743,2.511,1.112    c6.662,2.973,12.628,6.823,17.891,11.055c10.546,8.483,18.145,18.56,23.368,28.175c1.747,3.207,3.247,6.374,4.533,9.448    C138.793,113.779,138.177,110.545,137.728,109.146z M131.519,106.551c-3.489-6.52-8.116-13.247-13.991-19.575    c-0.43-0.463-0.715-0.527-1.03-0.835c-5.658-5.604-8.398-6.845-11.284-6.53c-0.937,0.1-2.35,1.426-1.62,2.417    c0.375,0.509,1.165,0.67,1.353,1.272c0.154,0.489-0.569,1.359-0.569,1.359c-0.368,0.362-0.803,0.73-0.87,1.245    c-0.028,0.231,0.024,0.461,0.093,0.688c0.133,0.438,0.296,0.866,0.454,1.296c0.147,0.4,0.317,0.817,0.632,1.097    c0.623,0.549,1.915,0.054,2.504-0.341c0.375-0.255,0.234-0.924,0.636-1.125c1.286-0.656,1.694,1.212,1.721,2.31    c0.007,0.348,0.04,0.77,0.348,0.931c0.12,0.054,1.446,1.694,1.486,2.009c0.054,0.368,0.422,0.596,0.737,0.797    c1.306,0.83-0.957,2.852-2.069,4.312c-0.415,0.542,0.362,0.924-0.074,1.56c-0.388,0.576,0.107,1.654,0.301,2.203    c0.281,0.777,0.596,1.594,0.616,2.397c0.08,2.739,0.161,5.403,3.837,5.705c1.473,1.935,3.16,0.562,4.406-0.074    c1.373-0.703,1.286-2.33,1.185-3.944c-0.1-1.62-0.027-3.549,1.145-4.62c0.83-0.763,1.714-1.138,2.511-1.446    c0.221-0.08,0.475-0.167,0.683-0.054c1.031,0.536,0.288,2.491,1.125,3.006c1.004,0.616,0.737,0.884,1.486,1.44    c0.824,0.616,2.699,1.614,4.245,2.504C131.519,106.551,131.515,106.555,131.519,106.551z M86.259,65.818l-1.265-0.489    l-1.292-0.415c-0.864-0.275-1.728-0.556-2.598-0.837c-0.884-0.234-1.768-0.469-2.658-0.703l-1.339-0.348    c-0.449-0.107-0.904-0.187-1.359-0.288c-0.911-0.181-1.821-0.368-2.739-0.556c-0.917-0.147-1.848-0.268-2.779-0.409l-1.399-0.201    c-0.469-0.06-0.931-0.087-1.399-0.134c-0.937-0.08-1.875-0.161-2.819-0.248c-0.957-0.04-1.935-0.06-2.906-0.094l-1.46-0.04    c-0.422,0-0.951,0.027-1.42,0.04c-0.964,0.027-1.928,0.054-2.899,0.087c-0.971,0.08-1.935,0.167-2.913,0.254l-1.46,0.127    l-1.453,0.214c-0.971,0.147-1.948,0.268-2.919,0.442c-3.884,0.73-7.76,1.721-11.563,3.047c-3.783,1.386-7.526,2.993-11.128,4.962    c-3.582,1.995-7.111,4.171-10.418,6.702c-3.301,2.538-6.495,5.283-9.468,8.282c-0.777,0.716-1.46,1.533-2.196,2.297    c-0.723,0.77-1.453,1.54-2.129,2.364l-2.062,2.437l-1.955,2.538c-0.676,0.83-1.259,1.734-1.882,2.605    c-0.241,0.348-0.475,0.69-0.723,1.031v0.007c-0.496,1.399-0.737,2.598-0.288,4.908c0.529,2.765,1.982,2.652,2.551,2.585    c1.433-0.174,1.112-1.948,1.118-2.665c0.013-1.225-0.027-2.504,0.536-3.629c0.007-0.027,0.02-0.047,0.034-0.074    c0.067-0.12,0.154-0.228,0.281-0.268c1.48-0.469,0.516,6.173,0.589,6.776c0.174,1.493,0.234,2.819-0.562,4.259    c-1.038,1.888,0.475,3.549,2.591,4.131c1.433,0.388,3.796,0.897,5.022,0.255c2.042-1.071,1.774-0.723,1.446-2.953    c-0.428-2.993,0.268-5.698,1.922-8.189c0.295-0.455,0.603-0.931,0.777-1.446c1.332-3.89,4.814-4.814,8.43-3.723    c0.784,0.234,1.681,0.348,2.377-0.08c0.295-0.187,0.529-0.462,0.83-0.636c0.797-0.482,0.402,0.201,1.279,0.509    c1.004,0.355,2.136,0.516,3.04,1.091c1.272,0.81,2.243,1.178,1.982,2.471c-0.248,1.219,0.087,4.982,2.176,4.366    c0.603-0.174,0.911-0.931,1.105-1.453c0.442-1.239,0.502-2.685,0.469-3.991c-0.047-1.808,0.214-3.582,2.009-4.426    c2.009-0.944,4.211-1.486,6.24-2.41c0.656-0.301,1.319-0.629,1.808-1.165c1.205-1.312,1.754-2.765,3.281-3.843    c1.446-1.024,3.174-1.6,4.935-1.714c1.024-0.06,2.196-0.388,2.591-1.332c0.107-0.248,0.147-0.529,0.301-0.757    c0.341-0.495,1.051-0.516,1.647-0.449c1.908,0.201,3.596,0.964,5.443,1.332c2.223,0.442,5.136,0.663,7.265,0.02    c0.837-0.248,1.045-1.319-0.208-2.109c-0.843-0.536-2.183,0.074-3.167-0.147c-0.944-0.214-1.741-0.877-1.774-1.895    c-0.013-0.542,0.268-1.098,0.75-1.339c0.71-0.355,1.547,0.04,2.337,0.161c1.855,0.288,3.596-0.877,5.464-0.864    c0.549,0.007,1.306,0.188,1.105,0.931c-0.094,0.362-0.415,0.623-0.75,0.783c-0.341,0.167-0.71,0.255-1.045,0.422    c-0.335,0.161-0.656,0.422-0.757,0.783c-0.315,1.178,1.433,1.875,2.216,2.277c1.594,0.804,3.308,1.393,5.015,1.908    c0.261,0.08,0.536,0.147,0.797,0.074c0.415-0.127,0.649-0.603,0.636-1.038c-0.02-0.616-0.395-1.399-0.716-1.928    c-0.596-0.984-1.982-1.319-2.41-2.397c-0.355-0.917,0.288-1.942,0.147-2.913c-0.101-0.663-0.556-1.219-1.051-1.667    c-1.078-0.984-2.437-1.634-3.488-2.658c-1.058-1.031-1.868-2.384-2.658-3.616c-0.542-0.85-0.958-1.841-0.824-2.839    c0.107-0.77,0.556-1.486,1.178-1.948c0.676-0.509,1.553-0.723,2.384-0.603c2.685,0.408,6.508,6.468,9.428,3.522    c0.395-0.402,0.629-0.931,0.984-1.373c1.212-1.54,3.375-1.413,5.142-1.607c0.241-0.027,0.475-0.047,0.716-0.067    C86.306,65.838,86.286,65.825,86.259,65.818z" fill="#e7d3b1" stroke-width="0"/>
		<path d="M24.331,170.656c0.25-0.293,0.696-0.455,1.254-0.472c13.833-0.425,27.733-0.118,41.574-0.162    c0.064,0,0.129,0,0.193-0.001c3.47-0.011,6.939,0.007,10.409-0.02c1.735-0.013,3.47-0.037,5.204-0.081    c1.271-0.032,3.171-0.57,4.069,0.61c0.641,0.842,0.693,1.994,0.553,3.043c-0.335,2.503-1.649,4.862-3.602,6.463    c-1.797,1.474-4.104,2.333-5.601,4.111c-1.16,1.378-1.702,3.158-2.558,4.744c-1.131,2.095-2.805,3.838-4.457,5.552    c-0.482,0.5-0.985,1.014-1.631,1.265c-0.961,0.373-2.035,0.1-3.066,0.111c-1.124,0.012-2.212,0.368-3.28,0.72    c-0.771,0.255-1.556,0.516-2.208,1c-0.998,0.74-1.567,1.904-2.227,2.957c-2.188,3.49-5.76,6.086-9.755,7.088    c-0.472,0.118-0.983,0.235-1.304,0.6c-0.308,0.35-0.368,0.848-0.562,1.272c-1.197,2.618-6.306,1.155-7.255,3.873    c-0.239,0.685-0.123,1.517-0.592,2.071c-0.526,0.621-1.734,0.921-1.529,1.708c0.134,0.513,0.856,0.701,0.979,1.217    c0.119,0.498-0.376,0.899-0.68,1.311c-0.611,0.829-0.251,1.929,0.053,2.912c0.294,0.95,0.53,2.235,0.647,2.618    c0.175,0.574-0.363,0.705-1.204,0.688c-1.294-0.025-6.947-4.525-7.902-15.515c-0.702-8.074,1.307-16.133,1.976-24.21    c0.217-2.62,0.284-5.451-1.162-7.647c-1.679-2.55-5.077-3.713-6.371-6.479C24.023,171.42,24.067,170.965,24.331,170.656z" fill="#e7d3b1" stroke-width="0"/>
		<path d="M121.731,204.936c-15.894,16.459-36.677,25.236-62.639,26.028    c-37.29-1.646-63.885-19.358-79.967-53.271c-0.23-0.355-0.413-0.191-0.058,0.838c0.21,0.608,0.216,0.708,0.343,1.055    c4.161,11.32,10.147,21.587,18.071,30.669c5.021,5.754,10.813,10.706,17.237,14.837c9.97,6.412,20.856,10.248,32.648,11.878    c13.215,1.827,26.056,0.707,38.608-3.652c16.014-5.561,29.351-14.347,39.403-28.382c2.465-3.441,2.4-4.532,2.4-4.532    c0.277-0.523-0.398-1.026-0.82-0.611L121.731,204.936z" fill="#e7d3b1" stroke-width="0"/>
		<path d="M3.214,119.69" fill="#e7d3b1" stroke-width="0"/>
	</g>
</g>
</svg></g></g><g id="shape_7lOuK3Mb1b" transform="translate(37.00000000000006,-13.651328469950045) rotate(0,363,308.592) scale(1,1)" filter="" style="opacity: 1;"><g><svg xmlns="http://www.w3.org/2000/svg" xmlns:xlink="http://www.w3.org/1999/xlink" version="1.1" width="902" height="617.184" viewBox="0 0 902 617.184"><g data-width="549.5039999999999" transform="translate(88, 0)"><path d="M35.20 0L5.72 0L5.72-10.47L32.56-10.47Q38.98-10.47 41.10-11.70L41.10-11.70Q44.18-13.55 44.18-17.25L44.18-17.25Q44.18-21.56 40.57-23.50L40.57-23.50Q38.54-24.64 34.06-24.64L34.06-24.64L23.14-24.64Q13.20-24.64 8.80-28.25L8.80-28.25Q6.07-30.54 4.53-33.97Q2.99-37.40 2.99-41.36L2.99-41.36Q2.99-47.52 6.60-52.62L6.60-52.62Q10.12-57.55 17.86-58.43L17.86-58.43Q20.50-58.70 25.70-58.70L25.70-58.70L54.82-58.70L54.82-48.22L28.51-48.22Q22.62-48.14 20.68-47.70L20.68-47.70Q16.72-46.73 16.72-41.71L16.72-41.71Q16.72-37.49 20.06-36.08L20.06-36.08Q22.26-35.02 27.46-35.02L27.46-35.02L36.87-35.02Q44.09-35.02 47.61-33.79L47.61-33.79Q53.86-31.68 56.23-26.40L56.23-26.40Q58.08-22.18 58.08-17.34L58.08-17.34Q58.08-11.97 55.62-7.74L55.62-7.74Q52.18-1.76 45.32-0.53L45.32-0.53Q41.98 0 35.20 0L35.20 0Z" transform="translate(0 339.592) " fill="#e7d3b1" stroke="#e7d3b1" stroke-width="0.147" data-glyph-w="66.16" data-glyph-h="88" data-glyph-ascender="75.592" data-glyph-descender="-12.408"/><path d="M5.28-58.70L17.69-58.70L17.69-23.50Q17.69-19.27 18.39-16.94Q19.10-14.61 20.77-12.94L20.77-12.94Q24.46-9.33 31.06-9.33L31.06-9.33Q35.29-9.33 38.41-10.78Q41.54-12.23 42.77-14.70L42.77-14.70Q44-17.16 44-23.50L44-23.50L44-58.70L56.50-58.70L56.50-24.11Q56.50-17.25 55.04-12.80Q53.59-8.36 50.60-5.63L50.60-5.63Q43.65 0.44 30.89 0.44L30.89 0.44Q17.25 0.44 11-5.54L11-5.54Q7.74-8.62 6.51-12.45Q5.28-16.28 5.28-23.23L5.28-23.23L5.28-58.70Z" transform="translate(66.16 339.592) " fill="#e7d3b1" stroke="#e7d3b1" stroke-width="0.147" data-glyph-w="66.864" data-glyph-h="88" data-glyph-ascender="75.592" data-glyph-descender="-12.408"/><path d="M38.54-20.50L18.48-20.50L18.48 0L5.98 0L5.98-58.70L35.29-58.70Q43.30-58.70 46.73-57.55L46.73-57.55Q52.54-55.62 55.88-49.54L55.88-49.54Q58.34-44.97 58.34-39.60L58.34-39.60Q58.34-35.11 56.72-31.11Q55.09-27.10 52.18-24.55L52.18-24.55Q49.54-22.26 46.60-21.38Q43.65-20.50 38.54-20.50L38.54-20.50ZM18.48-48.22L18.48-30.98L35.46-30.98Q40.04-30.98 41.89-32.38L41.89-32.38Q44.62-34.58 44.62-40.04L44.62-40.04Q44.62-45.94 40.48-47.61L40.48-47.61Q38.98-48.22 35.73-48.22L35.73-48.22L18.48-48.22Z" transform="translate(133.024 339.592) " fill="#e7d3b1" stroke="#e7d3b1" stroke-width="0.147" data-glyph-w="65.28" data-glyph-h="88" data-glyph-ascender="75.592" data-glyph-descender="-12.408"/><path d="M28.95-58.70L49.98-58.70L49.98-48.22L33.70-48.22Q27.37-48.22 24.46-47.34Q21.56-46.46 19.62-43.91L19.62-43.91Q18.30-42.15 17.82-40.39Q17.34-38.63 16.98-34.41L16.98-34.41L49.98-34.41L49.98-23.94L16.98-23.94Q17.69-16.37 21.47-13.42Q25.26-10.47 34.32-10.47L34.32-10.47L49.98-10.47L49.98 0L33.70 0Q27.10 0 22.09-0.79L22.09-0.79Q14.17-2.11 9.50-7.74L9.50-7.74Q2.82-15.84 2.82-29.66L2.82-29.66Q2.82-44.97 12.23-53.50L12.23-53.50Q15.49-56.41 19.14-57.55Q22.79-58.70 28.95-58.70L28.95-58.70Z" transform="translate(198.304 339.592) " fill="#e7d3b1" stroke="#e7d3b1" stroke-width="0.147" data-glyph-w="58.856" data-glyph-h="88" data-glyph-ascender="75.592" data-glyph-descender="-12.408"/><path d="M28.51-22.26L18.48-22.26L18.48 0L5.98 0L5.98-58.70L34.67-58.70Q46.99-58.70 51.83-55.53L51.83-55.53Q55.18-53.42 56.98-49.94Q58.78-46.46 58.78-42.33L58.78-42.33Q58.78-33.97 54.56-29.39L54.56-29.39Q51.92-26.66 47.61-25.26L47.61-25.26Q51.04-24.02 52.80-22.66Q54.56-21.30 55.97-18.66L55.97-18.66Q57.02-16.54 57.51-14.61Q57.99-12.67 58.26-8.89L58.26-8.89Q58.78-2.55 59.66 0L59.66 0L45.67 0Q45.06-2.02 44.35-8.36L44.35-8.36Q43.91-13.46 42.55-16.19Q41.18-18.92 38.46-20.50L38.46-20.50Q35.02-22.35 28.51-22.26L28.51-22.26ZM18.48-48.22L18.48-32.74L35.99-32.74Q40.39-32.74 42.24-34.06L42.24-34.06Q45.06-35.99 45.06-40.83L45.06-40.83Q45.06-46.20 40.83-47.70L40.83-47.70Q39.34-48.22 35.99-48.22L35.99-48.22L18.48-48.22Z" transform="translate(257.16 339.592) " fill="#e7d3b1" stroke="#e7d3b1" stroke-width="0.147" data-glyph-w="67.832" data-glyph-h="88" data-glyph-ascender="75.592" data-glyph-descender="-12.408"/><path d="M15.66-15.58L15.66-10.38L54.03-10.38L54.03 0L3.26 0L3.26-15.58Q3.08-25.43 8.18-30.62L8.18-30.62Q10.56-32.91 13.38-33.70Q16.19-34.50 22.18-34.50L22.18-34.50L31.77-34.50Q36.61-34.50 38.63-35.64L38.63-35.64Q41.80-37.49 41.80-41.10L41.80-41.10Q41.80-45.06 38.90-46.90L38.90-46.90Q36.70-48.22 31.77-48.22L31.77-48.22L4.14-48.22L4.14-58.70L34.41-58.70Q45.67-58.70 50.07-54.91L50.07-54.91Q52.71-52.80 54.12-49.24Q55.53-45.67 55.53-41.54L55.53-41.54Q55.53-36.43 53.77-32.52Q52.01-28.60 48.93-26.75L48.93-26.75Q44.35-24.02 35.20-24.02L35.20-24.02L26.93-24.02Q22.53-24.02 20.37-23.50Q18.22-22.97 17.16-21.56L17.16-21.56Q15.75-20.15 15.66-15.58L15.66-15.58Z" transform="translate(324.992 339.592) " fill="#e7d3b1" stroke="#e7d3b1" stroke-width="0.147" data-glyph-w="63.168" data-glyph-h="88" data-glyph-ascender="75.592" data-glyph-descender="-12.408"/><path d="M31.59-58.96L31.59-58.96Q48.14-58.96 55-50.16L55-50.16Q60.81-42.68 60.81-29.30L60.81-29.30Q60.81-13.38 53.15-6.07L53.15-6.07Q46.20 0.35 33.18 0.35L33.18 0.35Q15.75 0.35 8.36-9.24L8.36-9.24Q2.90-16.46 2.90-29.48L2.90-29.48Q2.90-44.53 9.90-51.70Q16.90-58.87 31.59-58.96ZM31.33-49.19L31.33-49.19Q27.37-49.19 24.16-47.48Q20.94-45.76 19.27-42.68L19.27-42.68Q18.13-40.74 17.38-37.09Q16.63-33.44 16.63-30.01L16.63-30.01Q16.63-26.05 17.42-22.09Q18.22-18.13 19.36-15.93L19.36-15.93Q22.79-9.50 32.56-9.50L32.56-9.50Q37.93-9.50 40.83-11.70L40.83-11.70Q44.88-14.70 46.11-20.59L46.11-20.59Q47.08-25.17 47.08-29.83L47.08-29.83Q47.08-34.32 46.02-38.24Q44.97-42.15 43.21-44.35L43.21-44.35Q41.45-46.55 38.28-47.83Q35.11-49.10 31.33-49.19Z" transform="translate(388.16 339.592) " fill="#e7d3b1" stroke="#e7d3b1" stroke-width="0.147" data-glyph-w="68.712" data-glyph-h="88" data-glyph-ascender="75.592" data-glyph-descender="-12.408"/><path d="M15.66-15.58L15.66-10.38L54.03-10.38L54.03 0L3.26 0L3.26-15.58Q3.08-25.43 8.18-30.62L8.18-30.62Q10.56-32.91 13.38-33.70Q16.19-34.50 22.18-34.50L22.18-34.50L31.77-34.50Q36.61-34.50 38.63-35.64L38.63-35.64Q41.80-37.49 41.80-41.10L41.80-41.10Q41.80-45.06 38.90-46.90L38.90-46.90Q36.70-48.22 31.77-48.22L31.77-48.22L4.14-48.22L4.14-58.70L34.41-58.70Q45.67-58.70 50.07-54.91L50.07-54.91Q52.71-52.80 54.12-49.24Q55.53-45.67 55.53-41.54L55.53-41.54Q55.53-36.43 53.77-32.52Q52.01-28.60 48.93-26.75L48.93-26.75Q44.35-24.02 35.20-24.02L35.20-24.02L26.93-24.02Q22.53-24.02 20.37-23.50Q18.22-22.97 17.16-21.56L17.16-21.56Q15.75-20.15 15.66-15.58L15.66-15.58Z" transform="translate(456.872 339.592) " fill="#e7d3b1" stroke="#e7d3b1" stroke-width="0.147" data-glyph-w="63.168" data-glyph-h="88" data-glyph-ascender="75.592" data-glyph-descender="-12.408"/><path d="M18.48-58.70L18.48 0L5.98 0L5.98-58.70L18.48-58.70Z" transform="translate(520.04 339.592) " fill="#e7d3b1" stroke="#e7d3b1" stroke-width="0.147" data-glyph-w="29.464" data-glyph-h="88" data-glyph-ascender="75.592" data-glyph-descender="-12.408"/></g></svg></g></g></svg>
